<svg width="387" height="110" viewBox="0 0 387 110" fill="none" xmlns="http://www.w3.org/2000/svg">
<path d="M48.8091 53.9074C51.7699 54.46 54.2038 55.9419 56.1108 58.3531C58.0178 60.7643 58.9713 63.5271 58.9713 66.6416C58.9713 69.4546 58.2687 71.9412 56.8636 74.1012C55.5086 76.211 53.5264 77.8687 50.9168 79.0743C48.3073 80.2799 45.221 80.8827 41.6579 80.8827H19V28.2885H40.6793C44.2424 28.2885 47.3036 28.8662 49.8629 30.0215C52.4725 31.1769 54.4297 32.7844 55.7344 34.8439C57.0894 36.9035 57.7669 39.2393 57.7669 41.8515C57.7669 44.9157 56.9388 47.4776 55.2828 49.5371C53.6769 51.5967 51.519 53.0535 48.8091 53.9074ZM29.5386 49.9892H39.1738C41.683 49.9892 43.6151 49.4367 44.97 48.3315C46.325 47.1762 47.0025 45.5436 47.0025 43.4338C47.0025 41.324 46.325 39.6914 44.97 38.5361C43.6151 37.3807 41.683 36.803 39.1738 36.803H29.5386V49.9892ZM40.1524 72.2928C42.7118 72.2928 44.694 71.69 46.0992 70.4844C47.5545 69.2788 48.2822 67.5709 48.2822 65.3606C48.2822 63.1001 47.5294 61.3419 46.0239 60.0861C44.5184 58.78 42.4859 58.127 39.9266 58.127H29.5386V72.2928H40.1524Z" fill="white"/>
<path d="M64.6605 59.8601C64.6605 55.6405 65.4885 51.8981 67.1445 48.6329C68.8508 45.3678 71.1341 42.8561 73.9946 41.098C76.9053 39.3398 80.1421 38.4607 83.7051 38.4607C86.8165 38.4607 89.5265 39.0886 91.8349 40.3445C94.1935 41.6003 96.0754 43.1826 97.4806 45.0915V39.1389H108.094V80.8827H97.4806V74.7793C96.1256 76.7384 94.2437 78.371 91.8349 79.6771C89.4763 80.9329 86.7413 81.5608 83.6299 81.5608C80.117 81.5608 76.9053 80.6566 73.9946 78.8482C71.1341 77.0398 68.8508 74.5031 67.1445 71.2379C65.4885 67.9225 64.6605 64.1299 64.6605 59.8601ZM97.4806 60.0108C97.4806 57.4489 96.9787 55.2637 95.9751 53.4553C94.9714 51.5967 93.6164 50.1902 91.9102 49.2357C90.2039 48.2311 88.3722 47.7287 86.4151 47.7287C84.4579 47.7287 82.6513 48.206 80.9952 49.1604C79.3392 50.1148 77.9842 51.5213 76.9304 53.38C75.9267 55.1884 75.4248 57.3484 75.4248 59.8601C75.4248 62.3717 75.9267 64.582 76.9304 66.4909C77.9842 68.3495 79.3392 69.7811 80.9952 70.7858C82.7015 71.7905 84.5081 72.2928 86.4151 72.2928C88.3722 72.2928 90.2039 71.8156 91.9102 70.8611C93.6164 69.8565 94.9714 68.45 95.9751 66.6416C96.9787 64.7829 97.4806 62.5727 97.4806 60.0108Z" fill="white"/>
<path d="M141.497 38.5361C146.465 38.5361 150.48 40.1184 153.541 43.2831C156.602 46.3976 158.133 50.7679 158.133 56.394V80.8827H147.594V57.8256C147.594 54.5102 146.766 51.9734 145.11 50.2153C143.454 48.4069 141.196 47.5027 138.335 47.5027C135.424 47.5027 133.116 48.4069 131.41 50.2153C129.754 51.9734 128.926 54.5102 128.926 57.8256V80.8827H118.387V39.1389H128.926V44.338C130.331 42.5296 132.112 41.1231 134.27 40.1184C136.478 39.0635 138.887 38.5361 141.497 38.5361Z" fill="white"/>
<path d="M192.845 80.8827L178.693 63.1001V80.8827H168.154V25.1238H178.693V56.8461L192.694 39.1389H206.394L188.027 60.0861L206.545 80.8827H192.845Z" fill="white"/>
<path d="M223.857 100H213.243V9H223.857V100Z" fill="white"/>
<path d="M234.29 40.4198C234.541 35.3965 236.297 31.5285 239.559 28.8159C242.871 26.0531 247.212 24.6717 252.582 24.6717C256.245 24.6717 259.381 25.3247 261.991 26.6308C264.601 27.8866 266.558 29.6197 267.862 31.8299C269.217 33.99 269.895 36.4514 269.895 39.2142C269.895 42.3789 269.067 45.0664 267.411 47.2766C265.805 49.4367 263.873 50.8934 261.615 51.6469V51.9483C264.525 52.8525 266.784 54.46 268.389 56.7707C270.045 59.0814 270.874 62.0452 270.874 65.662C270.874 68.676 270.171 71.3635 268.766 73.7244C267.411 76.0854 265.378 77.944 262.668 79.3003C260.009 80.6064 256.797 81.2594 253.033 81.2594C247.362 81.2594 242.746 79.8278 239.183 76.9645C235.619 74.1012 233.738 69.8816 233.537 64.3057H243.774C243.875 66.7671 244.703 68.7513 246.258 70.2583C247.864 71.7151 250.047 72.4435 252.807 72.4435C255.367 72.4435 257.324 71.7402 258.679 70.3337C260.084 68.8769 260.787 67.0183 260.787 64.7578C260.787 61.7438 259.833 59.5838 257.926 58.2777C256.019 56.9717 253.058 56.3186 249.044 56.3186H246.861V47.6534H249.044C256.17 47.6534 259.733 45.2673 259.733 40.4952C259.733 38.3351 259.08 36.6523 257.776 35.4467C256.521 34.2411 254.689 33.6383 252.28 33.6383C249.922 33.6383 248.09 34.2914 246.785 35.5974C245.531 36.8532 244.803 38.4607 244.602 40.4198H234.29Z" fill="white"/>
<path d="M307.656 39.6663C307.154 37.5565 306.275 35.9742 305.021 34.9193C303.816 33.8644 302.06 33.3369 299.752 33.3369C296.289 33.3369 293.73 34.7434 292.074 37.5565C290.468 40.3193 289.64 44.8403 289.589 51.1195C290.794 49.1102 292.55 47.5529 294.859 46.4478C297.167 45.2924 299.676 44.7147 302.386 44.7147C305.648 44.7147 308.534 45.418 311.043 46.8245C313.552 48.2311 315.509 50.2906 316.914 53.0032C318.32 55.6656 319.022 58.8805 319.022 62.648C319.022 66.2146 318.294 69.4044 316.839 72.2174C315.434 74.9803 313.351 77.1403 310.591 78.6975C307.831 80.2548 304.544 81.0334 300.73 81.0334C295.511 81.0334 291.396 79.878 288.385 77.5673C285.424 75.2565 283.342 72.0416 282.137 67.9225C280.983 63.7531 280.406 58.6294 280.406 52.5511C280.406 43.3585 281.987 36.4263 285.148 31.7546C288.31 27.0326 293.303 24.6717 300.128 24.6717C305.397 24.6717 309.487 26.1033 312.398 28.9666C315.309 31.8299 316.99 35.3965 317.441 39.6663H307.656ZM299.977 53.38C297.318 53.38 295.085 54.1586 293.278 55.7158C291.471 57.2731 290.568 59.5336 290.568 62.4973C290.568 65.4611 291.396 67.7969 293.052 69.5048C294.758 71.2128 297.142 72.0667 300.203 72.0667C302.913 72.0667 305.046 71.2379 306.602 69.5802C308.208 67.9225 309.011 65.6871 309.011 62.8741C309.011 59.9605 308.233 57.6498 306.677 55.9419C305.171 54.2339 302.938 53.38 299.977 53.38Z" fill="white"/>
<path d="M327.351 52.7018C327.351 44.0115 328.907 37.2049 332.018 32.282C335.18 27.3592 340.399 24.8977 347.676 24.8977C354.952 24.8977 360.146 27.3592 363.258 32.282C366.419 37.2049 368 44.0115 368 52.7018C368 61.4424 366.419 68.2992 363.258 73.2723C360.146 78.2454 354.952 80.732 347.676 80.732C340.399 80.732 335.18 78.2454 332.018 73.2723C328.907 68.2992 327.351 61.4424 327.351 52.7018ZM357.612 52.7018C357.612 48.9846 357.361 45.8701 356.859 43.3585C356.408 40.7966 355.454 38.7119 353.999 37.1044C352.594 35.497 350.486 34.6932 347.676 34.6932C344.865 34.6932 342.733 35.497 341.277 37.1044C339.872 38.7119 338.919 40.7966 338.417 43.3585C337.965 45.8701 337.739 48.9846 337.739 52.7018C337.739 56.5196 337.965 59.7345 338.417 62.3466C338.868 64.9085 339.822 66.9932 341.277 68.6007C342.733 70.1579 344.865 70.9365 347.676 70.9365C350.486 70.9365 352.619 70.1579 354.074 68.6007C355.529 66.9932 356.483 64.9085 356.935 62.3466C357.386 59.7345 357.612 56.5196 357.612 52.7018Z" fill="white"/>
</svg>
