<svg width="140" height="88" viewBox="0 0 140 88" fill="none" xmlns="http://www.w3.org/2000/svg">
<path d="M88.887 9.41211H51.0007V78.5875H88.887V9.41211Z" fill="#FF5A00"/>
<path d="M53.5228 44C53.5228 29.9456 60.024 17.4718 70 9.4123C62.6581 3.54563 53.3967 0 43.2946 0C19.3635 0 0 19.679 0 44C0 68.321 19.3635 88 43.2946 88C53.3967 88 62.6581 84.4544 70 78.5877C60.01 70.6421 53.5228 58.0544 53.5228 44Z" fill="#EB001B"/>
<path d="M140 44C140 68.321 120.637 88 96.7054 88C86.6033 88 77.3419 84.4544 70 78.5877C80.1021 70.5139 86.4772 58.0544 86.4772 44C86.4772 29.9456 79.976 17.4718 70 9.4123C77.3279 3.54563 86.5893 0 96.6913 0C120.637 0 140 19.8071 140 44Z" fill="#F79E1B"/>
</svg>
